<svg xmlns="http://www.w3.org/2000/svg" id="Layer_1" width="406" height="306" class="illustration styles_illustrationTablet__1DWOa" data-name="Layer 1" viewBox="0 0 400 300"><ellipse cx="204.91" cy="268.58" fill="#e6e6e6" opacity=".45" rx="98.64" ry="10.19"/><path fill="none" stroke="#24285b" stroke-linecap="round" stroke-linejoin="round" stroke-width="8" d="M172,164.43s-30.72,14.47-26.95,27S168,200.57,168,200.57"/><path fill="none" stroke="#24285b" stroke-linecap="round" stroke-linejoin="round" stroke-width="8" d="M158.69,116.8s-29.29-25.41-38.9-61.95"/><path fill="none" stroke="#24285b" stroke-linecap="round" stroke-linejoin="round" stroke-width="8" d="M242.44,136.63s30.76-.06,49.58-3.82,14.36-46.66,14.36-46.66"/><path fill="#ffd200" d="M127,51.16s11.39-5.68,7.69-11.66-8.79-3.85-8.79-3.85S125.37,21.3,114,25.7s-11.4,21.11-4.51,28.42S127,51.16,127,51.16Z"/><path fill="none" stroke="#24285b" stroke-linecap="round" stroke-linejoin="round" stroke-width="8" d="M212.21,182.74s-2.77,31.65-15.59,50.19"/><polygon fill="#ffd200" points="215.2 216.33 195.17 209.57 182.27 247.78 207.47 269.5 204.34 241.35 215.2 216.33"/><circle cx="202.01" cy="122.14" r="62.21" fill="#a78bfa"/><path d="M254,88.2a62.2,62.2,0,0,1-110.84,54.5A62.21,62.21,0,1,0,254,88.2Z" opacity=".09"/><path fill="#24285b" d="M231.89,140.49s-5.53,26.08-37.1,21.51S166,129,166,129Z"/><ellipse cx="169.55" cy="120.64" fill="#fff" opacity=".36" rx="4.76" ry="9" transform="translate(25.76 271.06) rotate(-81.72)"/><ellipse cx="234.34" cy="130.06" fill="#fff" opacity=".36" rx="4.76" ry="9" transform="translate(71.89 343.23) rotate(-81.72)"/><path fill="#ffd200" d="M113.1,67.3S142,65.38,136.78,55.18s-18.21-2.92-26.38-1.31S102.07,66.83,113.1,67.3Z"/><path fill="#fff" d="M113.1,67.3S142,65.38,136.78,55.18s-18.21-2.92-26.38-1.31S102.07,66.83,113.1,67.3Z" opacity=".44"/><path fill="#ffd200" d="M298.47,86s-12.25-3.44-9.73-10,7.92-5.42,7.92-5.42-2.16-14.2,9.87-12,15.14,18.61,9.73,27.08S298.47,86,298.47,86Z"/><path fill="#ffd200" d="M315.15,99.24s-28.75,3.51-25.53-7.49,17.35-6.27,25.67-6.21S325.9,96.71,315.15,99.24Z"/><path fill="#fff" d="M315.15,99.24s-28.75,3.51-25.53-7.49,17.35-6.27,25.67-6.21S325.9,96.71,315.15,99.24Z" opacity=".44"/><path fill="#a78bfa" d="M261.93,255.83s-9.64-2.64-11.74-11.61c0,0,14.94-3,15.37,12.4Z" opacity=".58"/><path fill="#a78bfa" d="M263.11,254.87s-6.73-10.65-.8-20.61c0,0,11.36,7.21,6.31,20.63Z" opacity=".73"/><path fill="#a78bfa" d="M264.85,254.88s3.56-11.25,14.32-13.38c0,0,2,7.3-7,13.41Z"/><polygon fill="#24285b" points="257.86 254.62 259.81 268 272.12 268.05 273.94 254.69 257.86 254.62"/><path fill="none" stroke="#24285b" stroke-linecap="round" stroke-linejoin="round" stroke-width="3" d="M177.44,110.26s3-20.72,11.39-19.76,5,22.15,5,22.15"/><path fill="none" stroke="#24285b" stroke-linecap="round" stroke-linejoin="round" stroke-width="3" d="M211.73,115.25s3-20.72,11.39-19.76,5,22.15,5,22.15"/><path fill="#ffd200" d="M151.15,183.76,138.7,201.45s17.44,6.72,28.13,10.49l5.62,20.42,10.69-34.49S165.23,195,151.15,183.76Z"/></svg>