<svg xmlns="http://www.w3.org/2000/svg" id="Layer_1" width="406" height="306" class="illustration styles_illustrationTablet__1DWOa" data-name="Layer 1" viewBox="0 0 400 300"><path fill="none" stroke="#24285b" stroke-linecap="round" stroke-linejoin="round" stroke-width="8" d="M241.9,147.68s18.75,33.94,15.18,71.55"/><path fill="#ffd200" d="M249,220.22s-12.65,1.4-11.23,8.29,6.93,6.64,6.93,6.64-4.45,13.66,7.77,13.46,18-15.89,14-25.13S249,220.22,249,220.22Z"/><path fill="#ffd200" d="M267.65,209.85s-27.79-8.16-26.4,3.22,16.08,9,24.31,10.32S277.84,214.09,267.65,209.85Z"/><path fill="#fff" d="M267.65,209.85s-27.79-8.16-26.4,3.22,16.08,9,24.31,10.32S277.84,214.09,267.65,209.85Z" opacity=".44"/><path fill="none" stroke="#24285b" stroke-linecap="round" stroke-linejoin="round" stroke-width="8" d="M143.81,147.68s-18.75,33.94-15.18,71.55"/><ellipse cx="195.81" cy="261.88" fill="#e6e6e6" opacity=".45" rx="119.13" ry="12.31"/><path fill="#ffd200" d="M136.68,220.22s12.65,1.4,11.23,8.29-6.92,6.64-6.92,6.64,4.44,13.66-7.78,13.46-18-15.89-14-25.13S136.68,220.22,136.68,220.22Z"/><path fill="none" stroke="#24285b" stroke-linecap="round" stroke-linejoin="round" stroke-width="8" d="M216.34,190.05s7.5,30.88,1.28,52.54"/><polygon fill="#ffd200" points="229.92 220.93 208.78 220.93 208.78 261.26 249.09 261.26 227.63 248.1 229.92 220.93"/><path fill="none" stroke="#24285b" stroke-linecap="round" stroke-linejoin="round" stroke-width="8" d="M168.19,190.05s-7.5,30.88-1.28,52.54"/><circle cx="192.97" cy="143.69" r="62.21" fill="#a78bfa"/><path d="M239.57,102.62a62.2,62.2,0,0,1-101.84,69.89,62.21,62.21,0,1,0,101.84-69.89Z" opacity=".09"/><ellipse cx="174.45" cy="128.88" fill="#24285b" rx="6" ry="13.24"/><ellipse cx="211.11" cy="128.88" fill="#24285b" rx="6" ry="13.24"/><ellipse cx="160.64" cy="146.88" fill="#fff" opacity=".36" rx="9" ry="4.76"/><ellipse cx="226.11" cy="146.88" fill="#fff" opacity=".36" rx="9" ry="4.76"/><polygon fill="#ffd200" points="154.61 220.93 175.75 220.93 175.75 261.26 135.44 261.26 156.9 248.1 154.61 220.93"/><path fill="#ffd200" d="M118.06,209.85s27.8-8.16,26.41,3.22-16.09,9-24.32,10.32S107.87,214.09,118.06,209.85Z"/><path fill="#fff" d="M118.06,209.85s27.8-8.16,26.41,3.22-16.09,9-24.32,10.32S107.87,214.09,118.06,209.85Z" opacity=".44"/><path fill="#a78bfa" d="M283.46,248.56s-9.64-2.63-11.74-11.61c0,0,14.94-3,15.37,12.4Z" opacity=".58"/><path fill="#a78bfa" d="M284.64,247.6s-6.73-10.65-.8-20.61c0,0,11.36,7.22,6.31,20.64Z" opacity=".73"/><path fill="#a78bfa" d="M286.38,247.61s3.56-11.25,14.32-13.38c0,0,2,7.31-7,13.41Z"/><polygon fill="#24285b" points="279.39 247.36 281.34 260.73 293.65 260.79 295.47 247.43 279.39 247.36"/><line x1="153.92" x2="233.11" y1="166.77" y2="166.77" fill="none" stroke="#24285b" stroke-linecap="round" stroke-linejoin="round" stroke-width="3"/><rect width="33.06" height="23.19" x="178.59" y="37.79" fill="#e6e6e6"/><polygon fill="#e6e6e6" points="199.34 57.56 195.26 68.96 191.63 57.56 199.34 57.56"/><circle cx="186" cy="49.21" r="2.4" fill="#c1c1c1"/><circle cx="194.86" cy="49.21" r="2.4" fill="#c1c1c1"/><circle cx="203.97" cy="49.21" r="2.4" fill="#c1c1c1"/></svg>